<svg width="273" height="271" viewBox="0 0 273 271"  xmlns="http://www.w3.org/2000/svg">
<path fill-rule="evenodd" clip-rule="evenodd" d="M18.9951 7.69043H247.869V11.6276L250.797 9.04394L264.615 24.7041V253.578H260.749L263.332 256.506L247.672 270.324H16.9935L1.98145 253.31V22.7025L18.9951 7.69043ZM256.615 251.764V27.7289L245.992 15.6904H22.0199L9.98145 26.3126V250.285L20.6036 262.324H244.647L256.615 251.764Z" />
<path fill-rule="evenodd" clip-rule="evenodd" d="M35.1506 26.5H234.778V27.945L235.841 27.0077L247.438 40.1544V239.838H246.055L246.993 240.9L233.849 252.5H33.5447L21.5 238.846V38.5481L35.1506 26.5ZM244.438 239.153V41.2885L234.039 29.5H36.2852L24.5 39.9016V237.711L34.8987 249.5H232.715L244.438 239.153Z" />
<path fill-rule="evenodd" clip-rule="evenodd" d="M132.494 86.5961L92.7594 109.082V153.918L132.494 176.404L172.228 153.918V109.082L132.494 86.5961ZM176.228 106.75L132.494 82L88.7594 106.75V156.25L132.494 181L176.228 156.25V106.75Z" />
<path fill-rule="evenodd" clip-rule="evenodd" d="M132.494 101.587L105.75 116.592V146.408L132.494 161.413L159.238 146.408V116.592L132.494 101.587ZM163.238 114.25L132.494 97L101.75 114.25V148.75L132.494 166L163.238 148.75V114.25Z" />
<path fill-rule="evenodd" clip-rule="evenodd" d="M0 47.8633H5.98132V81.1878H0V47.8633Z" />
<path fill-rule="evenodd" clip-rule="evenodd" d="M25.1512 0H69.0522L74.7076 5.15261V15.6191H18.9282V5.00283L25.1512 0Z" />
<path fill-rule="evenodd" clip-rule="evenodd" d="M272.305 36.4559V64.7975L266.604 68.5248H256.757V32.3271H266.733L272.305 36.4559Z" />
<path fill-rule="evenodd" clip-rule="evenodd" d="M272.305 110.938V139.28L266.604 143.007H256.757V106.81H266.733L272.305 110.938Z" />
</svg>
