<svg width="131" height="131" viewBox="0 0 131 131" fill="none" xmlns="http://www.w3.org/2000/svg">
<path d="M26.5352 0.921875C12.1992 0.921875 0.535156 12.5859 0.535156 26.9219V104.922C0.535156 119.258 12.1992 130.922 26.5352 130.922H104.535C118.871 130.922 130.535 119.258 130.535 104.922V26.9219C130.535 12.5839 118.871 0.921875 104.535 0.921875H26.5352ZM26.5352 4.92188H104.535C116.665 4.92188 126.535 14.7919 126.535 26.9219V104.922C126.535 117.052 116.665 126.922 104.535 126.922H26.5352C14.4052 126.922 4.53516 117.052 4.53516 104.922V26.9219C4.53516 14.7919 14.4052 4.92188 26.5352 4.92188ZM32.2109 10.9219C20.2589 10.9219 10.5352 20.6457 10.5352 32.5977V99.2461C10.5352 111.198 20.2589 120.922 32.2109 120.922H98.8633C110.815 120.922 120.535 111.198 120.535 99.2461V61.9219C120.535 61.3679 120.087 60.9219 119.535 60.9219C118.983 60.9219 118.535 61.3699 118.535 61.9219V99.2461C118.535 110.094 109.711 118.922 98.8633 118.922H32.2109C21.3629 118.922 12.5352 110.094 12.5352 99.2461V32.5977C12.5352 21.7497 21.3629 12.9219 32.2109 12.9219H99.5352C100.087 12.9219 100.535 12.4739 100.535 11.9219C100.535 11.3699 100.087 10.9219 99.5352 10.9219H32.2109ZM66.8008 32.4961C64.6048 32.4961 62.8164 34.2864 62.8164 36.4844V57.6836C62.8164 59.8816 64.6048 61.6719 66.8008 61.6719C68.9968 61.6719 70.7852 59.8816 70.7852 57.6836V36.4844C70.7852 34.2864 68.9968 32.4961 66.8008 32.4961ZM66.8008 34.4961C67.8948 34.4961 68.7852 35.3884 68.7852 36.4844V57.6836C68.7852 58.7776 67.8948 59.6719 66.8008 59.6719C65.7068 59.6719 64.8125 58.7796 64.8125 57.6836V36.4844C64.8125 35.3904 65.7048 34.4961 66.8008 34.4961ZM57.2617 37.6328C56.7447 37.6025 56.2128 37.6715 55.6953 37.8555C43.4893 42.2015 35.293 53.831 35.293 66.793C35.293 83.725 49.068 97.5 66 97.5C82.932 97.5 96.707 83.725 96.707 66.793C96.707 54.639 89.5242 43.6093 78.4102 38.6953C77.4402 38.2653 76.3593 38.239 75.3633 38.625C74.3693 39.009 73.5863 39.7546 73.1562 40.7266C72.7242 41.7006 72.6999 42.7853 73.0859 43.7773C73.4719 44.7693 74.2154 45.5524 75.1914 45.9844C83.4214 49.6244 88.7383 57.793 88.7383 66.793C88.7383 79.331 78.5399 89.5312 66.0039 89.5312C53.4679 89.5312 43.2656 79.331 43.2656 66.793C43.2636 57.195 49.3331 48.5852 58.3711 45.3672C60.4391 44.6292 61.5271 42.3434 60.7891 40.2734C60.2386 38.7194 58.8129 37.7238 57.2617 37.6328ZM119.535 38.9219C118.983 38.9219 118.535 39.3679 118.535 39.9219V43.9219C118.535 44.4739 118.983 44.9219 119.535 44.9219C120.087 44.9219 120.535 44.4739 120.535 43.9219V39.9219C120.535 39.3699 120.087 38.9219 119.535 38.9219ZM57.0352 39.6289C57.8512 39.6289 58.6163 40.1333 58.9062 40.9453C59.2743 41.9773 58.7351 43.1164 57.7031 43.4844C47.8711 46.9824 41.2656 56.351 41.2656 66.793C41.2656 80.433 52.36 91.5312 66 91.5312C79.64 91.5312 90.7344 80.435 90.7344 66.793C90.7344 57.003 84.9501 48.1163 75.9961 44.1562C75.5121 43.9422 75.1392 43.5526 74.9492 43.0586C74.7592 42.5646 74.7684 42.0251 74.9844 41.5391C75.1984 41.0551 75.5919 40.6803 76.0859 40.4883C76.5859 40.2983 77.1235 40.3133 77.6055 40.5273C87.9955 45.1213 94.7109 55.431 94.7109 66.793C94.7109 82.623 81.8359 95.5039 66.0039 95.5039C50.1719 95.5039 37.293 82.623 37.293 66.793C37.293 54.675 44.9611 43.8042 56.3711 39.7422C56.5891 39.6642 56.8152 39.6289 57.0352 39.6289ZM119.535 46.9219C118.983 46.9219 118.535 47.3699 118.535 47.9219V55.9219C118.535 56.4739 118.983 56.9219 119.535 56.9219C120.087 56.9219 120.535 56.4739 120.535 55.9219V47.9219C120.535 47.3679 120.087 46.9219 119.535 46.9219Z" fill="black"/>
</svg>
