<svg width="265" height="265" viewBox="0 0 265 265" fill="none" xmlns="http://www.w3.org/2000/svg">
<path d="M127.933 50.0984C121.267 55.6956 117 65.8239 117 76.2187C117 81.1496 117.533 86.7468 118.2 88.4792L119.533 91.8109L111.933 87.9462C107.267 85.6806 101.8 83.9482 97.6667 83.8149C91 83.4151 91 83.4151 90.6 87.8129C88.8667 105.671 108.6 126.727 127 126.727H131.667V145.384H105C84.6 145.384 78.3333 145.784 78.3333 146.983C78.4667 150.715 88.8667 212.017 89.6667 213.35C90.2 214.15 85.8 214.816 76.7333 214.949L63 215.082L77.6667 216.015C96.6 217.348 169.4 217.348 188.333 216.015L203 215.082L189.267 214.949C180.2 214.816 175.8 214.15 176.333 213.35C177.133 212.017 187.533 150.715 187.667 146.983C187.667 145.784 181.4 145.384 161 145.384H134.333V127.127L141.533 126.327C149.933 125.527 155.267 122.995 162.467 116.465C169.933 109.669 174.733 99.9401 174.867 90.7448L175 83.4151L168.333 83.8149C164.2 83.9482 158.733 85.6806 154.067 87.9462L146.467 91.8109L147.8 88.4792C148.467 86.7468 149 81.1496 149 76.2187C149 65.8239 144.733 55.6956 138.067 50.0984C133.133 45.9672 132.867 45.9672 127.933 50.0984ZM137.667 53.0303C144.2 59.6936 146.867 66.4902 147 76.7518C147 84.6145 146.333 87.1465 143 93.1435C140.867 97.0083 138.067 100.873 136.733 101.539C134.467 102.739 134.333 101.806 134.333 86.7467C134.333 77.0183 133.8 70.7548 133 70.7548C132.2 70.7548 131.667 77.0183 131.667 87.0133V103.272L127.667 99.4071C119.933 92.0774 117 76.7518 120.867 64.891C122.6 60.0934 130.867 49.4321 133 49.4321C133.533 49.4321 135.667 51.0313 137.667 53.0303ZM111.8 90.2117C119.533 94.0764 126.867 102.472 129.533 110.468C133 120.596 132.067 121.13 124.333 113.4C120.333 109.402 117 107.003 117 108.069C117 109.136 120.067 113.134 123.933 116.998L130.867 124.061H126.2C123.533 124.061 117.8 122.196 113.133 119.93C101.667 114.2 94.8667 104.604 93.4 91.8109L92.6 85.0143L99.1333 86.0804C102.6 86.6135 108.333 88.4792 111.8 90.2117ZM173.267 91.4111C172.333 102.339 165.133 113.533 155.133 119.397C149.533 122.595 137.267 126.06 135.933 124.728C135.533 124.328 138.6 120.463 142.867 116.199C147.133 111.934 149.933 108.069 149.267 107.536C148.467 107.137 144.867 110.068 141.133 114.2C133.667 122.329 132.6 121.396 136.467 110.468C141 96.875 157 85.0143 169.667 85.8139C173.533 86.0804 173.667 86.347 173.267 91.4111ZM185 148.982C185 154.446 175.267 211.484 174.067 212.95C173 214.283 163.133 214.683 132.867 214.683H93L91.6667 211.618C90.7333 209.352 83.4425 168.379 83.4425 165.047C83.4425 164.648 97.177 166.362 113.177 166.362C131.31 166.362 136.263 167.126 135.933 163.181C136.467 162.248 132.608 161.866 112.475 161.866L82.7817 161.102L81 150.715V146.717H133C181.667 146.717 185 146.85 185 148.982Z" fill="black"/>
<path d="M102.002 217.8C120.402 218.067 150.802 218.067 169.335 217.8C187.735 217.667 172.669 217.534 135.602 217.534C98.5354 217.534 83.4688 217.667 102.002 217.8Z" fill="black"/>
<path fill-rule="evenodd" clip-rule="evenodd" d="M127.29 49.3326L127.291 49.3318C128.512 48.3095 129.503 47.4918 130.36 46.9357C131.224 46.3752 132.069 46 133 46C133.931 46 134.776 46.3752 135.64 46.9357C136.497 47.4918 137.488 48.3095 138.709 49.3318L138.71 49.3326C145.645 55.1552 150 65.5884 150 76.2187C150 78.7165 149.865 81.3808 149.645 83.645C149.43 85.862 149.123 87.8266 148.733 88.8384L148.728 88.8508L148.383 89.7147L153.622 87.0506L153.63 87.0466C158.354 84.7531 163.959 82.9589 168.287 82.8159L176.02 82.3521L175.867 90.7593C175.867 90.7598 175.867 90.7604 175.867 90.7609C175.728 100.272 170.779 110.251 163.14 117.205L163.138 117.206C159.497 120.508 156.281 122.843 152.877 124.449C149.467 126.058 145.917 126.913 141.636 127.322L135.333 128.022V144.384H161C171.197 144.384 177.893 144.484 182.044 144.736C184.11 144.861 185.6 145.027 186.591 145.252C187.077 145.363 187.523 145.505 187.869 145.711C188.209 145.913 188.667 146.317 188.667 146.983V147.001L188.666 147.019C188.647 147.555 188.458 148.989 188.164 150.997C187.864 153.039 187.443 155.75 186.94 158.898C185.933 165.195 184.595 173.252 183.236 181.234C181.877 189.215 180.497 197.124 179.407 203.122C178.862 206.12 178.388 208.645 178.025 210.464C177.844 211.373 177.689 212.113 177.566 212.65C177.531 212.802 177.498 212.941 177.466 213.065C177.866 213.178 178.477 213.296 179.33 213.408C181.439 213.684 184.76 213.883 189.279 213.949C189.28 213.949 189.281 213.949 189.281 213.949L203.01 214.082L203.063 216.08L188.404 217.013C188.402 217.013 188.401 217.013 188.399 217.013C185.855 217.192 182.343 217.347 178.124 217.478C178.153 217.583 178.173 217.687 178.176 217.771C178.135 217.983 177.968 218.303 177.87 218.412C177.801 218.472 177.676 218.556 177.624 218.584C177.528 218.632 177.445 218.653 177.421 218.66C177.327 218.684 177.236 218.691 177.218 218.692L177.215 218.693C177.177 218.696 177.134 218.699 177.092 218.701C176.467 218.734 173.928 218.767 169.346 218.8C169.345 218.8 169.344 218.8 169.343 218.8L169.341 218.592C162.338 218.556 150.827 218.534 135.602 218.534C120.467 218.534 109.002 218.556 101.996 218.591L101.995 218.8C101.994 218.8 101.992 218.8 101.991 218.8C97.3753 218.767 94.8126 218.734 94.1701 218.701C94.1295 218.699 93.9819 218.693 93.8625 218.667C93.839 218.661 93.7813 218.648 93.7117 218.621C93.6761 218.606 93.5918 218.565 93.5437 218.537C93.4727 218.488 93.3103 218.335 93.2286 218.224C93.1635 218.093 93.1146 217.84 93.1077 217.62C86.5358 217.464 81.1353 217.262 77.6008 217.013C77.5993 217.013 77.5979 217.013 77.5965 217.013L62.9365 216.08L62.9903 214.082L76.7186 213.949C76.7195 213.949 76.7203 213.949 76.7212 213.949C81.2401 213.883 84.561 213.684 86.6704 213.408C87.5227 213.296 88.1339 213.178 88.5336 213.065C88.5025 212.941 88.4694 212.802 88.4344 212.65C88.311 212.113 88.156 211.373 87.9748 210.464C87.6119 208.645 87.1383 206.12 86.5932 203.122C85.5027 197.124 84.1229 189.215 82.7642 181.234C81.4055 173.252 80.0674 165.195 79.0605 158.898C78.5571 155.75 78.136 153.039 77.8364 150.997C77.5418 148.989 77.3531 147.555 77.334 147.019L77.3333 147.001V146.983C77.3333 146.317 77.7909 145.913 78.131 145.711C78.4773 145.505 78.9229 145.363 79.4094 145.252C80.4004 145.027 81.8903 144.861 83.9561 144.736C88.1073 144.484 94.8029 144.384 105 144.384H130.667V127.727H127C117.438 127.727 107.659 122.276 100.52 114.65C93.3851 107.027 88.7021 97.0296 89.6044 87.7196C89.6045 87.7185 89.6046 87.7174 89.6047 87.7163L89.6116 87.6401C89.7051 86.6111 89.7864 85.7166 89.9681 85.0232C90.1675 84.2622 90.5292 83.5754 91.2909 83.1444C91.9692 82.7607 92.8304 82.6653 93.793 82.6526C94.7735 82.6396 96.0533 82.7163 97.6831 82.8141L97.7129 82.8159C102.041 82.9589 107.646 84.7531 112.37 87.0466L112.378 87.0506L117.617 89.7147L117.267 88.8384C116.877 87.8267 116.57 85.862 116.355 83.645C116.135 81.3808 116 78.7165 116 76.2187C116 65.5884 120.355 55.1552 127.29 49.3326ZM119.533 91.8109L111.933 87.9462C107.267 85.6806 101.8 83.9482 97.6667 83.8149C94.6023 83.6311 92.9465 83.5318 92.0129 83.9053C91.8101 83.9864 91.6413 84.0899 91.4996 84.2197C90.8748 84.792 90.7762 85.8759 90.6 87.8129C88.8667 105.671 108.6 126.727 127 126.727H131.667V145.384H105C95.0365 145.384 88.4445 145.479 84.3072 145.717C82.9522 145.794 81.8606 145.887 81 145.997C80.6233 146.045 80.2908 146.097 80 146.151C78.8303 146.371 78.3333 146.645 78.3333 146.983C78.4667 150.715 88.8667 212.017 89.6667 213.35C90.2 214.15 85.8 214.816 76.7333 214.949L63 215.082L77.6667 216.015C81.4686 216.283 87.4425 216.497 94.7162 216.657C98.4409 216.739 102.506 216.807 106.796 216.861C115.776 216.973 125.736 217.024 135.602 217.013C138.346 217.01 141.083 217.003 143.79 216.99C154.514 216.94 164.761 216.815 173.09 216.615C179.547 216.46 184.851 216.26 188.333 216.015L203 215.082L189.267 214.949C180.2 214.816 175.8 214.15 176.333 213.35C177.133 212.017 187.533 150.715 187.667 146.983C187.667 145.784 181.4 145.384 161 145.384H134.333V127.127L141.533 126.327C149.933 125.527 155.267 122.995 162.467 116.465C169.933 109.669 174.733 99.9401 174.867 90.7448L175 83.4151L168.333 83.8149C164.2 83.9482 158.733 85.6806 154.067 87.9462L146.467 91.8109L147.8 88.4792C148.467 86.7468 149 81.1496 149 76.2187C149 65.8239 144.733 55.6956 138.067 50.0984C133.133 45.9672 132.867 45.9672 127.933 50.0984C121.267 55.6956 117 65.8239 117 76.2187C117 81.1496 117.533 86.7468 118.2 88.4792L119.533 91.8109ZM132.484 71.7578C132.497 71.7044 132.509 71.6531 132.522 71.6038C132.667 71.0463 132.827 70.7548 133 70.7548C133.173 70.7548 133.333 71.0471 133.478 71.6034C133.491 71.6527 133.504 71.704 133.517 71.7574C134.021 73.8921 134.333 79.306 134.333 86.7467C134.333 101.806 134.467 102.739 136.733 101.539C138.067 100.873 140.867 97.0083 143 93.1435C146.333 87.1465 147 84.6145 147 76.7518C146.867 66.4902 144.2 59.6936 137.667 53.0303C135.667 51.0313 133.533 49.4321 133 49.4321C130.867 49.4321 122.6 60.0934 120.867 64.891C117 76.7518 119.933 92.0774 127.667 99.4071L131.667 103.272V87.0133C131.667 79.365 131.979 73.9017 132.484 71.7578ZM130.667 100.915V87.0133C130.667 82.0032 130.8 77.9077 131.037 75.0533C131.155 73.6325 131.3 72.4849 131.477 71.6761C131.564 71.2801 131.67 70.9075 131.811 70.6124C131.88 70.4668 131.984 70.2837 132.143 70.1239C132.306 69.9589 132.595 69.7548 133 69.7548C133.404 69.7548 133.694 69.9587 133.857 70.1233C134.015 70.2829 134.119 70.4657 134.189 70.6109C134.33 70.9054 134.436 71.2768 134.523 71.6707C134.699 72.4754 134.845 73.6147 134.963 75.019C135.2 77.8403 135.333 81.8694 135.333 86.7467C135.333 94.3286 135.37 98.2166 135.671 100.081C135.731 100.455 135.795 100.699 135.852 100.854C135.953 100.813 136.087 100.75 136.266 100.655L136.276 100.65L136.286 100.645C136.45 100.563 136.774 100.31 137.245 99.8065C137.693 99.3274 138.21 98.6936 138.763 97.9463C139.867 96.4529 141.077 94.5583 142.125 92.6603L142.126 92.6577C143.781 89.6809 144.728 87.6419 145.279 85.4079C145.832 83.1667 146 80.6701 146 76.7583C145.934 71.7141 145.246 67.5783 143.803 63.9077C142.361 60.2415 140.146 56.9877 136.956 53.7339C135.986 52.7643 134.987 51.8958 134.176 51.2761C133.769 50.9646 133.424 50.7277 133.164 50.5739C133.078 50.523 133.008 50.4856 132.955 50.4592C132.949 50.4615 132.944 50.464 132.938 50.4667C132.835 50.5124 132.692 50.593 132.507 50.7211C132.138 50.9778 131.677 51.3709 131.146 51.8889C130.087 52.9211 128.83 54.3662 127.571 55.978C125.037 59.223 122.627 62.974 121.812 65.2164C119.943 70.9619 119.711 77.5776 120.898 83.6565C122.088 89.7506 124.683 95.2009 128.355 98.6813L128.362 98.6879L130.667 100.915ZM173.092 217.615C172.036 217.607 170.781 217.599 169.334 217.592C169.333 217.592 169.333 217.592 169.332 217.592C162.324 217.556 150.816 217.534 135.602 217.534C120.478 217.534 109.016 217.556 102.005 217.591C102.005 217.591 102.004 217.591 102.004 217.591C98.6004 217.608 96.2461 217.628 95.0311 217.651C94.9179 217.653 94.8146 217.655 94.7212 217.657C93.7731 217.679 93.8526 217.702 95.0361 217.726C96.2227 217.75 98.519 217.775 102.002 217.8C103.541 217.822 105.163 217.843 106.855 217.861C115.278 217.954 125.434 218 135.602 218C138.34 218 141.079 217.997 143.786 217.99C153.16 217.967 162.142 217.904 169.335 217.8C172.751 217.775 175.014 217.751 176.196 217.727C176.234 217.951 176.344 218.233 176.429 218.348C176.505 218.425 176.644 218.532 176.702 218.566C176.806 218.622 176.895 218.646 176.918 218.652C176.971 218.666 177.019 218.673 177.041 218.675C176.987 218.671 176.818 218.664 176.499 218.657C175.871 218.643 174.786 218.629 173.261 218.617C172.174 218.608 170.866 218.6 169.347 218.592L169.35 218.8C169.349 218.8 169.348 218.8 169.346 218.8C150.804 219.067 120.4 219.067 101.991 218.8C101.99 218.8 101.989 218.8 101.988 218.8L101.991 218.591M177.041 218.675C177.042 218.675 177.043 218.675 177.044 218.676C177.056 218.677 177.058 218.677 177.045 218.676C177.044 218.675 177.042 218.675 177.041 218.675ZM176.186 217.65C175.5 217.638 174.464 217.626 173.092 217.615ZM81 150.715L82.7817 161.102L112.475 161.866C132.608 161.866 136.467 162.248 135.933 163.181C136.211 166.512 132.724 166.486 120.717 166.397C118.503 166.381 116 166.362 113.177 166.362C103.043 166.362 93.8185 165.674 88.4162 165.272C85.289 165.038 83.4425 164.901 83.4425 165.047C83.4425 168.379 90.7333 209.352 91.6667 211.618L93 214.683H132.867C163.133 214.683 173 214.283 174.067 212.95C175.267 211.484 185 154.446 185 148.982C185 146.85 181.667 146.717 133 146.717H81V150.715ZM82 147.717V150.63L83.6285 160.124L112.488 160.866C122.542 160.866 128.567 160.961 132.016 161.175C133.721 161.281 134.878 161.42 135.592 161.618C135.916 161.708 136.338 161.857 136.633 162.171C136.807 162.356 136.953 162.617 136.976 162.941C136.986 163.08 136.972 163.208 136.944 163.323C136.966 163.835 136.91 164.34 136.725 164.814C136.507 165.373 136.134 165.821 135.634 166.166C134.698 166.811 133.305 167.095 131.566 167.247C129.131 167.46 125.576 167.433 120.639 167.397C118.435 167.381 115.955 167.362 113.177 167.362C105.143 167.362 97.6837 166.932 92.2402 166.553C90.7731 166.45 89.472 166.353 88.3412 166.269C87.3534 166.195 86.4955 166.131 85.7707 166.082C85.2738 166.048 84.8567 166.022 84.521 166.006C84.5718 166.46 84.6473 167.052 84.748 167.774C84.9478 169.208 85.235 171.083 85.5836 173.252C86.2806 177.59 87.2201 183.09 88.1892 188.558C89.1583 194.026 90.1562 199.459 90.9697 203.664C91.3766 205.767 91.7364 207.559 92.023 208.893C92.1664 209.56 92.2902 210.107 92.3915 210.519C92.4961 210.944 92.5622 211.162 92.5889 211.231C92.5897 211.233 92.5905 211.235 92.5913 211.237L93.6555 213.683H132.867C148.002 213.683 158.015 213.583 164.375 213.317C167.559 213.184 169.796 213.011 171.292 212.793C172.042 212.685 172.571 212.569 172.926 212.455C173.102 212.398 173.205 212.351 173.26 212.323C173.26 212.322 173.261 212.32 173.261 212.319C173.303 212.201 173.357 212.025 173.423 211.785C173.554 211.309 173.716 210.637 173.905 209.787C174.283 208.091 174.759 205.733 175.299 202.917C176.379 197.287 177.707 189.856 178.998 182.297C180.289 174.738 181.542 167.057 182.472 160.926C182.937 157.86 183.32 155.187 183.588 153.112C183.858 151.009 184 149.588 184 148.982C184 148.956 183.999 148.937 183.998 148.924C183.981 148.911 183.951 148.89 183.902 148.865C183.809 148.815 183.663 148.754 183.439 148.689C182.499 148.415 180.68 148.2 177.207 148.049C170.318 147.75 157.346 147.717 133 147.717H82ZM173.288 212.323C173.29 212.321 173.291 212.319 173.293 212.317ZM99.1333 86.0804L92.6 85.0143L93.4 91.8109C94.8667 104.604 101.667 114.2 113.133 119.93C117.8 122.196 123.533 124.061 126.2 124.061H130.867L123.933 116.998C120.71 113.777 118.043 110.463 117.244 108.831C117.242 108.826 117.239 108.821 117.237 108.816C117.082 108.497 117 108.244 117 108.069C117 107.721 117.356 107.743 117.975 108.069C117.983 108.074 117.992 108.078 118 108.082C118.005 108.085 118.01 108.088 118.015 108.091C119.3 108.783 121.669 110.737 124.333 113.4C132.067 121.13 133 120.596 129.533 110.468C126.867 102.472 119.533 94.0764 111.8 90.2117C108.333 88.4792 102.6 86.6135 99.1333 86.0804ZM117.169 108.808C117.169 108.808 117.174 108.809 117.187 108.812C117.175 108.81 117.169 108.808 117.169 108.808ZM123.226 117.706C123.225 117.704 123.224 117.703 123.223 117.702C121.266 115.746 119.505 113.749 118.226 112.096C117.587 111.271 117.057 110.515 116.68 109.882C116.492 109.566 116.332 109.263 116.217 108.986C116.11 108.731 116 108.404 116 108.069C116 107.881 116.036 107.623 116.194 107.374C116.365 107.105 116.617 106.942 116.873 106.868C117.299 106.745 117.708 106.871 117.927 106.951C118.44 107.139 119.076 107.535 119.753 108.026C121.145 109.034 123.019 110.673 125.04 112.693C126.972 114.624 128.444 116.002 129.513 116.84C129.897 117.141 130.205 117.353 130.445 117.493C130.426 117.242 130.379 116.912 130.291 116.488C130.026 115.202 129.453 113.323 128.587 110.792L128.585 110.785C126.004 103.046 118.854 94.855 111.353 91.1062C107.97 89.4158 102.336 87.5847 98.9814 87.0688L98.9723 87.0674L93.7482 86.2149L94.3935 91.697C95.821 104.149 102.411 113.452 113.575 119.033C115.864 120.144 118.417 121.158 120.721 121.893C123.057 122.638 125.032 123.061 126.2 123.061H128.484L123.226 117.706ZM130.43 117.989C130.43 117.988 130.432 117.982 130.436 117.972C130.433 117.984 130.431 117.989 130.43 117.989ZM130.88 117.694C130.889 117.695 130.894 117.696 130.894 117.696C130.894 117.696 130.89 117.696 130.88 117.694ZM149.808 106.689L149.891 106.755C150.386 107.151 150.387 107.727 150.35 108.013C150.31 108.329 150.189 108.65 150.054 108.938C149.777 109.53 149.312 110.258 148.723 111.06C147.535 112.678 145.732 114.749 143.574 116.906C141.459 119.019 139.651 121.025 138.428 122.54C137.956 123.126 137.582 123.625 137.314 124.02C137.656 124.015 138.079 123.981 138.578 123.915C139.938 123.736 141.722 123.341 143.664 122.798C147.557 121.71 151.933 120.072 154.633 118.531C164.364 112.823 171.365 101.914 172.27 91.3286C172.371 90.0532 172.432 89.1406 172.417 88.4601C172.401 87.7614 172.304 87.4768 172.223 87.3505C172.177 87.2775 172.082 87.1638 171.667 87.0572C171.222 86.9425 170.583 86.8794 169.601 86.8117C163.581 86.4327 156.645 89.0698 150.613 93.5468C144.589 98.0175 139.603 104.223 137.415 110.785L137.412 110.793L137.409 110.802C136.445 113.527 135.805 115.585 135.492 117.018C135.362 117.61 135.297 118.06 135.28 118.387C135.487 118.261 135.752 118.073 136.08 117.807C137.108 116.971 138.533 115.553 140.394 113.527C142.284 111.435 144.152 109.633 145.667 108.395C146.42 107.779 147.114 107.279 147.697 106.954C147.985 106.794 148.285 106.654 148.576 106.574C148.832 106.504 149.278 106.424 149.714 106.642L149.808 106.689ZM141.133 114.2C144.867 110.068 148.467 107.137 149.267 107.536C149.933 108.069 147.133 111.934 142.867 116.199C138.6 120.463 135.533 124.328 135.933 124.728C137.267 126.06 149.533 122.595 155.133 119.397C165.133 113.533 172.333 102.339 173.267 91.4111C173.667 86.347 173.533 86.0804 169.667 85.8139C157 85.0143 141 96.875 136.467 110.468C132.6 121.396 133.667 122.329 141.133 114.2ZM134.847 118.591C134.847 118.591 134.853 118.59 134.862 118.589C134.852 118.591 134.847 118.592 134.847 118.591Z" fill="black"/>
<path fill-rule="evenodd" clip-rule="evenodd" d="M205 23H60C39.5655 23 23 39.5655 23 60V205C23 225.435 39.5655 242 60 242H205C225.435 242 242 225.435 242 205V60C242 39.5655 225.435 23 205 23ZM60 20C37.9086 20 20 37.9086 20 60V205C20 227.091 37.9086 245 60 245H205C227.091 245 245 227.091 245 205V60C245 37.9086 227.091 20 205 20H60Z" fill="black"/>
<path fill-rule="evenodd" clip-rule="evenodd" d="M215 8H50C26.804 8 8 26.804 8 50V215C8 238.196 26.804 257 50 257H215C238.196 257 257 238.196 257 215V50C257 26.804 238.196 8 215 8ZM50 0C22.3858 0 0 22.3858 0 50V215C0 242.614 22.3858 265 50 265H215C242.614 265 265 242.614 265 215V50C265 22.3858 242.614 0 215 0H50Z" fill="black"/>
</svg>
