<svg width="265" height="265" viewBox="0 0 265 265" fill="none" xmlns="http://www.w3.org/2000/svg">
<path fill-rule="evenodd" clip-rule="evenodd" d="M215 8H50C26.804 8 8 26.804 8 50V215C8 238.196 26.804 257 50 257H215C238.196 257 257 238.196 257 215V50C257 26.804 238.196 8 215 8ZM50 0C22.3858 0 0 22.3858 0 50V215C0 242.614 22.3858 265 50 265H215C242.614 265 265 242.614 265 215V50C265 22.3858 242.614 0 215 0H50Z" fill="black"/>
<path fill-rule="evenodd" clip-rule="evenodd" d="M205 23H60C39.5655 23 23 39.5655 23 60V205C23 225.435 39.5655 242 60 242H205C225.435 242 242 225.435 242 205V60C242 39.5655 225.435 23 205 23ZM60 20C37.9086 20 20 37.9086 20 60V205C20 227.091 37.9086 245 60 245H205C227.091 245 245 227.091 245 205V60C245 37.9086 227.091 20 205 20H60Z" fill="black"/>
<path d="M93.8333 54C91.1901 54 89 56.1889 89 58.8308V66.0769H72.0833C65.4375 66.0769 60 71.5115 60 78.1538V198.923C60 205.565 65.4375 211 72.0833 211H192.917C199.563 211 205 205.565 205 198.923V78.1538C205 71.5115 199.563 66.0769 192.917 66.0769H176V58.8308C176 56.1889 173.81 54 171.167 54H166.333C163.69 54 161.5 56.1889 161.5 58.8308V66.0769H103.5V58.8308C103.5 56.1889 101.31 54 98.6667 54H93.8333ZM93.8333 58.8308H98.6667V78.1538H93.8333V58.8308ZM166.333 58.8308H171.167V78.1538H166.333V58.8308ZM72.0833 70.9077H89V78.1538C89 80.7957 91.1901 82.9846 93.8333 82.9846H98.6667C101.31 82.9846 103.5 80.7957 103.5 78.1538V70.9077H161.5V78.1538C161.5 80.7957 163.69 82.9846 166.333 82.9846H171.167C173.81 82.9846 176 80.7957 176 78.1538V70.9077H192.917C196.948 70.9077 200.167 74.1251 200.167 78.1538V95.0615H64.8333V78.1538C64.8333 74.1251 68.0524 70.9077 72.0833 70.9077ZM64.8333 99.8923H200.167V198.923C200.167 202.952 196.948 206.169 192.917 206.169H72.0833C68.0524 206.169 64.8333 202.952 64.8333 198.923V99.8923ZM93.8333 119.215C92.5023 119.215 91.4167 120.3 91.4167 121.631C91.4167 122.961 92.5023 124.046 93.8333 124.046C95.1644 124.046 96.25 122.961 96.25 121.631C96.25 120.3 95.1644 119.215 93.8333 119.215ZM103.5 119.215C102.169 119.215 101.083 120.3 101.083 121.631C101.083 122.961 102.169 124.046 103.5 124.046C104.831 124.046 105.917 122.961 105.917 121.631C105.917 120.3 104.831 119.215 103.5 119.215ZM113.167 119.215C111.836 119.215 110.75 120.3 110.75 121.631C110.75 122.961 111.836 124.046 113.167 124.046C114.498 124.046 115.583 122.961 115.583 121.631C115.583 120.3 114.498 119.215 113.167 119.215ZM122.833 119.215C121.502 119.215 120.417 120.3 120.417 121.631C120.417 122.961 121.502 124.046 122.833 124.046C124.164 124.046 125.25 122.961 125.25 121.631C125.25 120.3 124.164 119.215 122.833 119.215ZM132.5 119.215C131.169 119.215 130.083 120.3 130.083 121.631C130.083 122.961 131.169 124.046 132.5 124.046C133.831 124.046 134.917 122.961 134.917 121.631C134.917 120.3 133.831 119.215 132.5 119.215ZM142.167 119.215C140.836 119.215 139.75 120.3 139.75 121.631C139.75 122.961 140.836 124.046 142.167 124.046C143.498 124.046 144.583 122.961 144.583 121.631C144.583 120.3 143.498 119.215 142.167 119.215ZM151.833 119.215C150.502 119.215 149.417 120.3 149.417 121.631C149.417 122.961 150.502 124.046 151.833 124.046C153.164 124.046 154.25 122.961 154.25 121.631C154.25 120.3 153.164 119.215 151.833 119.215ZM161.5 119.215C160.169 119.215 159.083 120.3 159.083 121.631C159.083 122.961 160.169 124.046 161.5 124.046C162.831 124.046 163.917 122.961 163.917 121.631C163.917 120.3 162.831 119.215 161.5 119.215ZM171.167 119.215C169.836 119.215 168.75 120.3 168.75 121.631C168.75 122.961 169.836 124.046 171.167 124.046C172.498 124.046 173.583 122.961 173.583 121.631C173.583 120.3 172.498 119.215 171.167 119.215ZM93.8333 128.877C92.5023 128.877 91.4167 129.962 91.4167 131.292C91.4167 132.623 92.5023 133.708 93.8333 133.708C95.1644 133.708 96.25 132.623 96.25 131.292C96.25 129.962 95.1644 128.877 93.8333 128.877ZM113.167 128.877C111.836 128.877 110.75 129.962 110.75 131.292C110.75 132.623 111.836 133.708 113.167 133.708C114.498 133.708 115.583 132.623 115.583 131.292C115.583 129.962 114.498 128.877 113.167 128.877ZM132.5 128.877C131.169 128.877 130.083 129.962 130.083 131.292C130.083 132.623 131.169 133.708 132.5 133.708C133.831 133.708 134.917 132.623 134.917 131.292C134.917 129.962 133.831 128.877 132.5 128.877ZM151.833 128.877C150.502 128.877 149.417 129.962 149.417 131.292C149.417 132.623 150.502 133.708 151.833 133.708C153.164 133.708 154.25 132.623 154.25 131.292C154.25 129.962 153.164 128.877 151.833 128.877ZM171.167 128.877C169.836 128.877 168.75 129.962 168.75 131.292C168.75 132.623 169.836 133.708 171.167 133.708C172.498 133.708 173.583 132.623 173.583 131.292C173.583 129.962 172.498 128.877 171.167 128.877ZM93.8333 138.538C92.5023 138.538 91.4167 139.623 91.4167 140.954C91.4167 142.284 92.5023 143.369 93.8333 143.369C95.1644 143.369 96.25 142.284 96.25 140.954C96.25 139.623 95.1644 138.538 93.8333 138.538ZM103.5 138.538C102.169 138.538 101.083 139.623 101.083 140.954C101.083 142.284 102.169 143.369 103.5 143.369C104.831 143.369 105.917 142.284 105.917 140.954C105.917 139.623 104.831 138.538 103.5 138.538ZM113.167 138.538C111.836 138.538 110.75 139.623 110.75 140.954C110.75 142.284 111.836 143.369 113.167 143.369C114.498 143.369 115.583 142.284 115.583 140.954C115.583 139.623 114.498 138.538 113.167 138.538ZM122.833 138.538C121.502 138.538 120.417 139.623 120.417 140.954C120.417 142.284 121.502 143.369 122.833 143.369C124.164 143.369 125.25 142.284 125.25 140.954C125.25 139.623 124.164 138.538 122.833 138.538ZM132.5 138.538C131.169 138.538 130.083 139.623 130.083 140.954C130.083 142.284 131.169 143.369 132.5 143.369C133.831 143.369 134.917 142.284 134.917 140.954C134.917 139.623 133.831 138.538 132.5 138.538ZM142.167 138.538C140.836 138.538 139.75 139.623 139.75 140.954C139.75 142.284 140.836 143.369 142.167 143.369C143.498 143.369 144.583 142.284 144.583 140.954C144.583 139.623 143.498 138.538 142.167 138.538ZM151.833 138.538C150.502 138.538 149.417 139.623 149.417 140.954C149.417 142.284 150.502 143.369 151.833 143.369C153.164 143.369 154.25 142.284 154.25 140.954C154.25 139.623 153.164 138.538 151.833 138.538ZM161.5 138.538C160.169 138.538 159.083 139.623 159.083 140.954C159.083 142.284 160.169 143.369 161.5 143.369C162.831 143.369 163.917 142.284 163.917 140.954C163.917 139.623 162.831 138.538 161.5 138.538ZM171.167 138.538C169.836 138.538 168.75 139.623 168.75 140.954C168.75 142.284 169.836 143.369 171.167 143.369C172.498 143.369 173.583 142.284 173.583 140.954C173.583 139.623 172.498 138.538 171.167 138.538ZM93.8333 148.2C92.5023 148.2 91.4167 149.285 91.4167 150.615C91.4167 151.946 92.5023 153.031 93.8333 153.031C95.1644 153.031 96.25 151.946 96.25 150.615C96.25 149.285 95.1644 148.2 93.8333 148.2ZM113.167 148.2C111.836 148.2 110.75 149.285 110.75 150.615C110.75 151.946 111.836 153.031 113.167 153.031C114.498 153.031 115.583 151.946 115.583 150.615C115.583 149.285 114.498 148.2 113.167 148.2ZM132.5 148.2C131.169 148.2 130.083 149.285 130.083 150.615C130.083 151.946 131.169 153.031 132.5 153.031C133.831 153.031 134.917 151.946 134.917 150.615C134.917 149.285 133.831 148.2 132.5 148.2ZM151.833 148.2C150.502 148.2 149.417 149.285 149.417 150.615C149.417 151.946 150.502 153.031 151.833 153.031C153.164 153.031 154.25 151.946 154.25 150.615C154.25 149.285 153.164 148.2 151.833 148.2ZM171.167 148.2C169.836 148.2 168.75 149.285 168.75 150.615C168.75 151.946 169.836 153.031 171.167 153.031C172.498 153.031 173.583 151.946 173.583 150.615C173.583 149.285 172.498 148.2 171.167 148.2ZM93.8333 157.862C92.5023 157.862 91.4167 158.947 91.4167 160.277C91.4167 161.607 92.5023 162.692 93.8333 162.692C95.1644 162.692 96.25 161.607 96.25 160.277C96.25 158.947 95.1644 157.862 93.8333 157.862ZM103.5 157.862C102.169 157.862 101.083 158.947 101.083 160.277C101.083 161.607 102.169 162.692 103.5 162.692C104.831 162.692 105.917 161.607 105.917 160.277C105.917 158.947 104.831 157.862 103.5 157.862ZM113.167 157.862C111.836 157.862 110.75 158.947 110.75 160.277C110.75 161.607 111.836 162.692 113.167 162.692C114.498 162.692 115.583 161.607 115.583 160.277C115.583 158.947 114.498 157.862 113.167 157.862ZM122.833 157.862C121.502 157.862 120.417 158.947 120.417 160.277C120.417 161.607 121.502 162.692 122.833 162.692C124.164 162.692 125.25 161.607 125.25 160.277C125.25 158.947 124.164 157.862 122.833 157.862ZM132.5 157.862C131.169 157.862 130.083 158.947 130.083 160.277C130.083 161.607 131.169 162.692 132.5 162.692C133.831 162.692 134.917 161.607 134.917 160.277C134.917 158.947 133.831 157.862 132.5 157.862ZM142.167 157.862C140.836 157.862 139.75 158.947 139.75 160.277C139.75 161.607 140.836 162.692 142.167 162.692C143.498 162.692 144.583 161.607 144.583 160.277C144.583 158.947 143.498 157.862 142.167 157.862ZM151.833 157.862C150.502 157.862 149.417 158.947 149.417 160.277C149.417 161.607 150.502 162.692 151.833 162.692C153.164 162.692 154.25 161.607 154.25 160.277C154.25 158.947 153.164 157.862 151.833 157.862ZM161.5 157.862C160.169 157.862 159.083 158.947 159.083 160.277C159.083 161.607 160.169 162.692 161.5 162.692C162.831 162.692 163.917 161.607 163.917 160.277C163.917 158.947 162.831 157.862 161.5 157.862ZM171.167 157.862C169.836 157.862 168.75 158.947 168.75 160.277C168.75 161.607 169.836 162.692 171.167 162.692C172.498 162.692 173.583 161.607 173.583 160.277C173.583 158.947 172.498 157.862 171.167 157.862ZM93.8333 167.523C92.5023 167.523 91.4167 168.608 91.4167 169.938C91.4167 171.269 92.5023 172.354 93.8333 172.354C95.1644 172.354 96.25 171.269 96.25 169.938C96.25 168.608 95.1644 167.523 93.8333 167.523ZM113.167 167.523C111.836 167.523 110.75 168.608 110.75 169.938C110.75 171.269 111.836 172.354 113.167 172.354C114.498 172.354 115.583 171.269 115.583 169.938C115.583 168.608 114.498 167.523 113.167 167.523ZM132.5 167.523C131.169 167.523 130.083 168.608 130.083 169.938C130.083 171.269 131.169 172.354 132.5 172.354C133.831 172.354 134.917 171.269 134.917 169.938C134.917 168.608 133.831 167.523 132.5 167.523ZM151.833 167.523C150.502 167.523 149.417 168.608 149.417 169.938C149.417 171.269 150.502 172.354 151.833 172.354C153.164 172.354 154.25 171.269 154.25 169.938C154.25 168.608 153.164 167.523 151.833 167.523ZM171.167 167.523C169.836 167.523 168.75 168.608 168.75 169.938C168.75 171.269 169.836 172.354 171.167 172.354C172.498 172.354 173.583 171.269 173.583 169.938C173.583 168.608 172.498 167.523 171.167 167.523ZM93.8333 177.185C92.5023 177.185 91.4167 178.27 91.4167 179.6C91.4167 180.93 92.5023 182.015 93.8333 182.015C95.1644 182.015 96.25 180.93 96.25 179.6C96.25 178.27 95.1644 177.185 93.8333 177.185ZM103.5 177.185C102.169 177.185 101.083 178.27 101.083 179.6C101.083 180.93 102.169 182.015 103.5 182.015C104.831 182.015 105.917 180.93 105.917 179.6C105.917 178.27 104.831 177.185 103.5 177.185ZM113.167 177.185C111.836 177.185 110.75 178.27 110.75 179.6C110.75 180.93 111.836 182.015 113.167 182.015C114.498 182.015 115.583 180.93 115.583 179.6C115.583 178.27 114.498 177.185 113.167 177.185ZM122.833 177.185C121.502 177.185 120.417 178.27 120.417 179.6C120.417 180.93 121.502 182.015 122.833 182.015C124.164 182.015 125.25 180.93 125.25 179.6C125.25 178.27 124.164 177.185 122.833 177.185ZM132.5 177.185C131.169 177.185 130.083 178.27 130.083 179.6C130.083 180.93 131.169 182.015 132.5 182.015C133.831 182.015 134.917 180.93 134.917 179.6C134.917 178.27 133.831 177.185 132.5 177.185ZM142.167 177.185C140.836 177.185 139.75 178.27 139.75 179.6C139.75 180.93 140.836 182.015 142.167 182.015C143.498 182.015 144.583 180.93 144.583 179.6C144.583 178.27 143.498 177.185 142.167 177.185ZM151.833 177.185C150.502 177.185 149.417 178.27 149.417 179.6C149.417 180.93 150.502 182.015 151.833 182.015C153.164 182.015 154.25 180.93 154.25 179.6C154.25 178.27 153.164 177.185 151.833 177.185ZM161.5 177.185C160.169 177.185 159.083 178.27 159.083 179.6C159.083 180.93 160.169 182.015 161.5 182.015C162.831 182.015 163.917 180.93 163.917 179.6C163.917 178.27 162.831 177.185 161.5 177.185ZM171.167 177.185C169.836 177.185 168.75 178.27 168.75 179.6C168.75 180.93 169.836 182.015 171.167 182.015C172.498 182.015 173.583 180.93 173.583 179.6C173.583 178.27 172.498 177.185 171.167 177.185Z" fill="black"/>
</svg>
