<svg width="265" height="265" viewBox="0 0 265 265" fill="none" xmlns="http://www.w3.org/2000/svg">
<path d="M129.533 54.0002C129.156 53.9953 128.783 54.0775 128.443 54.2404C128.104 54.4034 127.807 54.6425 127.576 54.939C127.576 54.939 114.736 71.4571 101.89 92.335C89.0449 113.213 76 138.238 76 156.711C76 186.636 99.9516 211 129.5 211C159.048 211 183 186.636 183 156.711C183 138.238 169.955 113.213 157.11 92.335C144.264 71.4571 131.424 54.939 131.424 54.939C131.2 54.6513 130.914 54.4175 130.586 54.255C130.259 54.0924 129.899 54.0054 129.533 54.0002ZM129.5 60.4963C132.04 63.821 141.808 76.7303 152.958 94.8541C165.647 115.477 178.136 140.6 178.136 156.711C178.136 184.083 156.36 206.169 129.5 206.169C102.64 206.169 80.8636 184.083 80.8636 156.711C80.8636 140.6 93.3528 115.477 106.042 94.8541C117.192 76.7303 126.96 63.821 129.5 60.4963ZM92.0253 158.923C90.6878 159.02 89.6672 160.18 89.7645 161.508H89.7882C89.8612 162.788 90.9317 163.754 92.1963 163.754H92.3625C93.7025 163.657 94.7254 162.497 94.6281 161.169C94.5308 159.84 93.3628 158.826 92.0253 158.923ZM165.127 160.23C163.79 160.085 162.598 161.076 162.477 162.405C162.355 163.733 163.329 164.892 164.666 165.037H164.909C166.149 165.037 167.195 164.118 167.317 162.862C167.438 161.534 166.467 160.351 165.127 160.23ZM94.3574 168.344C94.0436 168.33 93.7222 168.376 93.4122 168.49C92.1452 168.949 91.5134 170.348 91.9731 171.58C92.3403 172.571 93.2636 173.175 94.2339 173.175C94.5281 173.175 94.8238 173.126 95.0888 173.005C96.3558 172.546 97.0096 171.171 96.5232 169.915C96.1785 168.973 95.2988 168.386 94.3574 168.344ZM162.562 169.566C161.608 169.579 160.723 170.152 160.358 171.075C159.848 172.331 160.455 173.73 161.722 174.213C162.013 174.333 162.303 174.406 162.619 174.406C163.568 174.406 164.492 173.829 164.856 172.887C165.367 171.631 164.762 170.228 163.522 169.745C163.205 169.618 162.88 169.561 162.562 169.566ZM99.2258 176.84C98.6114 176.744 97.9606 176.88 97.4256 177.279C96.3313 178.076 96.0864 179.575 96.8889 180.661C97.351 181.289 98.1062 181.652 98.86 181.652C99.3464 181.652 99.8573 181.485 100.271 181.171C101.365 180.398 101.61 178.875 100.807 177.812C100.417 177.269 99.8401 176.937 99.2258 176.84ZM157.48 177.925C156.863 178.004 156.274 178.319 155.861 178.85C155.034 179.889 155.228 181.411 156.274 182.232C156.736 182.571 157.249 182.742 157.784 182.742C158.514 182.742 159.217 182.426 159.703 181.822C160.53 180.759 160.334 179.237 159.266 178.416C158.743 178.005 158.097 177.847 157.48 177.925ZM105.291 183.77C104.671 183.843 104.073 184.152 103.648 184.671C102.821 185.71 102.991 187.233 104.061 188.054H104.037C104.499 188.416 105.034 188.587 105.571 188.587C106.277 188.587 106.982 188.271 107.466 187.667C108.296 186.628 108.123 185.106 107.077 184.285C106.553 183.862 105.911 183.698 105.291 183.77ZM151.192 184.653C150.578 184.562 149.927 184.707 149.392 185.105C148.297 185.878 148.081 187.402 148.883 188.464C149.345 189.116 150.072 189.455 150.826 189.455C151.337 189.455 151.847 189.312 152.26 188.974V188.997C153.355 188.2 153.576 186.678 152.773 185.615C152.384 185.071 151.806 184.743 151.192 184.653ZM113.912 188.7C112.961 188.696 112.052 189.247 111.651 190.153C111.116 191.385 111.698 192.811 112.914 193.342C113.23 193.463 113.572 193.536 113.888 193.536C114.812 193.536 115.712 192.981 116.125 192.087C116.658 190.856 116.073 189.43 114.857 188.898C114.547 188.765 114.229 188.702 113.912 188.7ZM142.4 189.266C142.082 189.258 141.757 189.311 141.441 189.431C140.2 189.914 139.567 191.313 140.054 192.545C140.443 193.511 141.342 194.092 142.315 194.092C142.631 194.092 142.925 194.043 143.217 193.923C144.455 193.464 145.09 192.065 144.604 190.809C144.239 189.867 143.353 189.291 142.4 189.266ZM123.568 191.361C122.255 191.168 121.013 192.09 120.794 193.394C120.599 194.723 121.523 195.951 122.86 196.144C122.979 196.169 123.102 196.168 123.202 196.168C124.391 196.168 125.442 195.324 125.61 194.116C125.805 192.787 124.905 191.554 123.568 191.361ZM132.635 191.554C131.322 191.699 130.349 192.887 130.497 194.215C130.619 195.471 131.685 196.385 132.901 196.385C132.998 196.385 133.074 196.361 133.171 196.361C134.509 196.217 135.457 195.034 135.333 193.705C135.189 192.377 133.972 191.409 132.635 191.554Z" fill="black"/>
<path fill-rule="evenodd" clip-rule="evenodd" d="M215 8H50C26.804 8 8 26.804 8 50V215C8 238.196 26.804 257 50 257H215C238.196 257 257 238.196 257 215V50C257 26.804 238.196 8 215 8ZM50 0C22.3858 0 0 22.3858 0 50V215C0 242.614 22.3858 265 50 265H215C242.614 265 265 242.614 265 215V50C265 22.3858 242.614 0 215 0H50Z" fill="black"/>
<path fill-rule="evenodd" clip-rule="evenodd" d="M205 23H60C39.5655 23 23 39.5655 23 60V205C23 225.435 39.5655 242 60 242H205C225.435 242 242 225.435 242 205V60C242 39.5655 225.435 23 205 23ZM60 20C37.9086 20 20 37.9086 20 60V205C20 227.091 37.9086 245 60 245H205C227.091 245 245 227.091 245 205V60C245 37.9086 227.091 20 205 20H60Z" fill="black"/>
</svg>
