<svg width="265" height="265" viewBox="0 0 265 265"  xmlns="http://www.w3.org/2000/svg">
<path d="M96.0154 54C88.8251 54 82.067 55.8948 76.2284 59.1992L78.5546 63.2816C83.7129 60.3525 89.6526 58.6866 96.0154 58.6866C115.545 58.6866 131.323 74.3939 131.323 93.8358C131.323 113.278 115.545 128.985 96.0154 128.985C76.4858 128.985 60.7077 113.278 60.7077 93.8358C60.7077 87.1263 62.611 80.8837 65.8843 75.5564L70.1231 79.7761L72.4769 65.7164L58.3538 68.0597L62.4731 72.1604C58.3906 78.4031 56 85.8449 56 93.8358C56 104.838 60.5054 114.806 67.7692 122.028V199.284C67.7692 205.728 73.0654 211 79.5385 211H197.231C203.704 211 209 205.728 209 199.284V82.1194C209 75.6754 203.704 70.403 197.231 70.403H180.754V63.3731C180.754 60.8102 178.621 58.6866 176.046 58.6866H171.338C168.764 58.6866 166.631 60.8102 166.631 63.3731V70.403H128.307C121.025 60.4806 109.283 54 96.0154 54ZM171.338 63.3731H176.046V82.1194H171.338V63.3731ZM108.18 71.4465L96.3096 89.1584C96.2177 89.1584 96.1165 89.1493 96.0154 89.1493C93.4133 89.1493 91.3077 91.2454 91.3077 93.8358C91.3077 96.4262 93.4133 98.5224 96.0154 98.5224C96.4291 98.5224 96.8337 98.4675 97.2291 98.3668L108.474 109.552L111.803 106.239L100.558 95.0441C100.668 94.6505 100.723 94.2477 100.723 93.8358C100.723 93.1127 100.558 92.4079 100.236 91.758L112.097 74.0461L108.18 71.4465ZM131.305 75.0895H166.631V82.1194C166.631 84.6824 168.764 86.806 171.338 86.806H176.046C178.621 86.806 180.754 84.6824 180.754 82.1194V75.0895H197.231C201.157 75.0895 204.292 78.2109 204.292 82.1194V98.5224H135.727C135.911 96.9846 136.031 95.4285 136.031 93.8358C136.031 87.0623 134.311 80.6823 131.305 75.0895ZM134.863 103.209H204.292V199.284C204.292 203.192 201.157 206.313 197.231 206.313H79.5385C75.6123 206.313 72.4769 203.192 72.4769 199.284V125.983C79.0879 130.797 87.2069 133.672 96.0154 133.672C114.837 133.672 130.615 120.665 134.863 103.209Z"/>
<path d="M137.844 125.687C137.674 125.685 137.505 125.722 137.352 125.796C137.198 125.869 137.064 125.978 136.96 126.112C136.96 126.112 131.155 133.592 125.348 143.046C119.541 152.5 113.644 163.832 113.644 172.197C113.644 185.748 124.472 196.781 137.829 196.781C151.187 196.781 162.015 185.748 162.015 172.197C162.015 163.832 156.118 152.5 150.311 143.046C144.504 133.592 138.699 126.112 138.699 126.112C138.598 125.982 138.469 125.876 138.321 125.802C138.173 125.729 138.01 125.689 137.844 125.687ZM137.829 128.628C138.978 130.134 143.393 135.98 148.434 144.187C154.17 153.526 159.816 164.902 159.816 172.197C159.816 184.592 149.972 194.594 137.829 194.594C125.687 194.594 115.843 184.592 115.843 172.197C115.843 164.902 121.489 153.526 127.225 144.187C132.266 135.98 136.681 130.134 137.829 128.628ZM103.435 154.009C103.01 153.966 102.576 154.169 102.353 154.563C102.057 155.098 102.254 155.765 102.782 156.06C102.958 156.148 103.133 156.192 103.31 156.192C103.706 156.192 104.08 155.983 104.276 155.622C104.573 155.097 104.376 154.431 103.849 154.135C103.717 154.064 103.576 154.024 103.435 154.009ZM172.458 154.362C172.316 154.37 172.174 154.407 172.04 154.475C171.501 154.737 171.271 155.394 171.546 155.94C171.733 156.323 172.129 156.553 172.525 156.553C172.69 156.553 172.854 156.508 173.019 156.432C173.557 156.169 173.778 155.513 173.515 154.966C173.308 154.564 172.884 154.336 172.458 154.362ZM107.282 156.126C106.858 156.082 106.424 156.29 106.2 156.684C105.905 157.209 106.102 157.875 106.63 158.171C106.806 158.269 106.982 158.314 107.169 158.314C107.553 158.314 107.926 158.106 108.124 157.746C108.421 157.221 108.223 156.552 107.697 156.257C107.565 156.183 107.424 156.141 107.282 156.126ZM168.523 156.301C168.381 156.309 168.239 156.345 168.104 156.41C167.554 156.684 167.335 157.34 167.599 157.876C167.797 158.27 168.181 158.489 168.589 158.489C168.754 158.489 168.918 158.457 169.072 158.38V158.369C169.622 158.107 169.841 157.45 169.566 156.915C169.368 156.504 168.948 156.278 168.523 156.301ZM164.583 158.241C164.439 158.251 164.295 158.288 164.157 158.356C163.619 158.619 163.389 159.277 163.664 159.824C163.851 160.207 164.247 160.424 164.653 160.424C164.807 160.424 164.972 160.392 165.137 160.315C165.675 160.042 165.894 159.386 165.63 158.85C165.433 158.44 165.012 158.213 164.583 158.241ZM111.124 158.245C110.697 158.198 110.271 158.403 110.048 158.805C109.752 159.33 109.95 159.999 110.477 160.294C110.653 160.382 110.83 160.424 111.006 160.424C111.401 160.424 111.774 160.228 111.972 159.867C112.269 159.331 112.071 158.664 111.544 158.38C111.41 158.306 111.266 158.261 111.124 158.245ZM99.3531 170.531C98.7485 170.531 98.2538 171.023 98.2538 171.625C98.2538 172.226 98.7485 172.718 99.3531 172.718C99.9577 172.718 100.452 172.226 100.452 171.625C100.452 171.023 99.9577 170.531 99.3531 170.531ZM103.75 170.531C103.146 170.531 102.651 171.023 102.651 171.625C102.651 172.226 103.146 172.718 103.75 172.718C104.355 172.718 104.85 172.226 104.85 171.625C104.85 171.023 104.355 170.531 103.75 170.531ZM108.148 170.531C107.543 170.531 107.048 171.023 107.048 171.625C107.048 172.226 107.543 172.718 108.148 172.718C108.752 172.718 109.247 172.226 109.247 171.625C109.247 171.023 108.752 170.531 108.148 170.531ZM167.511 170.531C166.907 170.531 166.412 171.023 166.412 171.625C166.412 172.226 166.907 172.718 167.511 172.718C168.116 172.718 168.611 172.226 168.611 171.625C168.611 171.023 168.116 170.531 167.511 170.531ZM171.909 170.531C171.304 170.531 170.809 171.023 170.809 171.625C170.809 172.226 171.304 172.718 171.909 172.718C172.513 172.718 173.008 172.226 173.008 171.625C173.008 171.023 172.513 170.531 171.909 170.531ZM176.306 170.531C175.701 170.531 175.207 171.023 175.207 171.625C175.207 172.226 175.701 172.718 176.306 172.718C176.91 172.718 177.405 172.226 177.405 171.625C177.405 171.023 176.91 170.531 176.306 170.531ZM120.889 173.199C120.284 173.243 119.823 173.768 119.867 174.37H119.877C119.91 174.949 120.394 175.387 120.966 175.387H121.041C121.647 175.343 122.109 174.818 122.065 174.216C122.021 173.614 121.493 173.155 120.889 173.199ZM153.935 173.791C153.33 173.725 152.792 174.174 152.737 174.776C152.682 175.377 153.122 175.902 153.727 175.968H153.836C154.397 175.968 154.87 175.552 154.925 174.983C154.98 174.381 154.541 173.846 153.935 173.791ZM121.943 177.465C121.801 177.459 121.656 177.479 121.516 177.531C120.943 177.739 120.657 178.373 120.865 178.931C121.031 179.379 121.448 179.653 121.887 179.653C122.02 179.653 122.154 179.63 122.274 179.576C122.846 179.368 123.142 178.745 122.922 178.177C122.766 177.75 122.369 177.484 121.943 177.465ZM152.776 178.018C152.344 178.025 151.944 178.284 151.779 178.702C151.548 179.271 151.823 179.904 152.396 180.123C152.527 180.177 152.658 180.21 152.801 180.21C153.23 180.21 153.648 179.949 153.813 179.522C154.043 178.954 153.77 178.318 153.209 178.1C153.066 178.042 152.919 178.016 152.776 178.018ZM124.144 181.313C123.866 181.269 123.572 181.331 123.33 181.511C122.835 181.872 122.725 182.551 123.087 183.043C123.296 183.327 123.638 183.492 123.978 183.492C124.198 183.492 124.429 183.416 124.616 183.274C125.111 182.924 125.221 182.234 124.859 181.753C124.682 181.507 124.421 181.356 124.144 181.313ZM150.478 181.804C150.199 181.839 149.933 181.982 149.746 182.223C149.372 182.693 149.46 183.382 149.933 183.754C150.142 183.907 150.374 183.985 150.616 183.985C150.945 183.985 151.263 183.842 151.483 183.568C151.857 183.087 151.768 182.398 151.285 182.026C151.049 181.84 150.757 181.768 150.478 181.804ZM164.576 183.327C164.146 183.326 163.736 183.577 163.554 183.996C163.323 184.543 163.575 185.186 164.136 185.427C164.279 185.493 164.421 185.515 164.565 185.515C164.995 185.515 165.401 185.274 165.577 184.859C165.817 184.301 165.566 183.655 165.006 183.415C164.866 183.354 164.719 183.328 164.576 183.327ZM111.13 183.331C110.986 183.327 110.84 183.349 110.696 183.404C110.136 183.612 109.852 184.247 110.061 184.816C110.236 185.254 110.644 185.515 111.094 185.515C111.227 185.515 111.357 185.494 111.478 185.45C112.048 185.232 112.335 184.596 112.116 184.038C111.96 183.612 111.561 183.346 111.13 183.331ZM126.886 184.451C126.605 184.484 126.335 184.624 126.143 184.859C125.769 185.329 125.846 186.019 126.329 186.39H126.319C126.528 186.554 126.769 186.632 127.012 186.632C127.331 186.632 127.65 186.489 127.869 186.215C128.244 185.745 128.166 185.055 127.693 184.684C127.456 184.492 127.166 184.418 126.886 184.451ZM147.635 184.85C147.358 184.809 147.063 184.875 146.822 185.055C146.327 185.405 146.229 186.095 146.592 186.576C146.801 186.872 147.129 187.025 147.47 187.025C147.701 187.025 147.932 186.96 148.118 186.807V186.818C148.613 186.457 148.713 185.767 148.35 185.286C148.174 185.04 147.913 184.891 147.635 184.85ZM107.02 184.884C106.877 184.88 106.73 184.902 106.587 184.957C106.025 185.165 105.74 185.8 105.949 186.369C106.125 186.807 106.543 187.068 106.982 187.068C107.115 187.068 107.245 187.047 107.366 187.004C107.937 186.785 108.223 186.149 108.004 185.591C107.847 185.165 107.451 184.899 107.02 184.884ZM168.613 185.053C168.186 185.052 167.781 185.306 167.599 185.724C167.357 186.271 167.621 186.915 168.17 187.155C168.312 187.21 168.456 187.243 168.611 187.243C169.028 187.243 169.435 186.992 169.622 186.587C169.853 186.029 169.601 185.383 169.04 185.143C168.9 185.083 168.755 185.054 168.613 185.053ZM102.909 186.437C102.765 186.433 102.618 186.455 102.475 186.51C101.914 186.729 101.628 187.353 101.837 187.922C102.013 188.36 102.43 188.621 102.87 188.621C103.002 188.621 103.136 188.6 103.257 188.557C103.827 188.338 104.114 187.713 103.894 187.145C103.738 186.718 103.339 186.452 102.909 186.437ZM130.783 186.683C130.353 186.681 129.942 186.931 129.761 187.341C129.519 187.899 129.782 188.545 130.332 188.785C130.475 188.84 130.629 188.873 130.772 188.873C131.19 188.873 131.596 188.622 131.783 188.217C132.024 187.659 131.76 187.013 131.21 186.773C131.07 186.713 130.926 186.684 130.783 186.683ZM172.656 186.781C172.226 186.779 171.815 187.031 171.634 187.441C171.403 187.999 171.654 188.643 172.216 188.883C172.359 188.938 172.502 188.971 172.645 188.971C173.074 188.971 173.48 188.72 173.656 188.315C173.897 187.757 173.645 187.112 173.083 186.871C172.943 186.811 172.799 186.782 172.656 186.781ZM143.661 186.939C143.517 186.936 143.37 186.96 143.227 187.014C142.667 187.233 142.381 187.866 142.6 188.424C142.776 188.862 143.183 189.125 143.622 189.125C143.765 189.125 143.898 189.103 144.03 189.048C144.59 188.84 144.877 188.207 144.657 187.638C144.492 187.211 144.092 186.951 143.661 186.939ZM135.148 187.888C134.554 187.8 133.993 188.218 133.894 188.809C133.806 189.41 134.223 189.967 134.828 190.054C134.882 190.065 134.937 190.065 134.982 190.065C135.52 190.065 135.995 189.682 136.071 189.136C136.159 188.534 135.752 187.975 135.148 187.888ZM139.247 187.976C138.653 188.041 138.213 188.579 138.28 189.18C138.335 189.749 138.817 190.163 139.367 190.163C139.411 190.163 139.445 190.152 139.489 190.152C140.094 190.087 140.522 189.551 140.466 188.95C140.401 188.348 139.851 187.91 139.247 187.976Z" />
<rect x="4" y="4" width="257" height="257" rx="46" stroke="black" stroke-width="8"/>
<rect x="21.5" y="21.5" width="222" height="222" rx="38.5" stroke="black" stroke-width="3"/>
</svg>
